<mxfile><diagram id="W5xXarPOmQTgT5QACHsw" name="Page-1"><mxGraphModel dx="576" dy="1392" grid="1" gridSize="10" guides="1" tooltips="1" connect="1" arrows="1" fold="1" page="1" pageScale="1" pageWidth="850" pageHeight="1100" math="0" shadow="0"><root><mxCell id="0"/><mxCell id="1" parent="0"/><mxCell id="6" value="" style="edgeStyle=none;html=1;" edge="1" parent="1" source="2" target="3"><mxGeometry relative="1" as="geometry"/></mxCell><mxCell id="2" value="START" style="strokeWidth=2;html=1;shape=mxgraph.flowchart.terminator;whiteSpace=wrap;labelBackgroundColor=default;" vertex="1" parent="1"><mxGeometry x="375" y="-1080" width="100" height="60" as="geometry"/></mxCell><mxCell id="7" value="" style="edgeStyle=none;html=1;" edge="1" parent="1" source="3" target="4"><mxGeometry relative="1" as="geometry"/></mxCell><mxCell id="3" value="SENSOR CO2 &lt;br&gt;MENDEKTEKSI &lt;br&gt;KANDUNGAN CO2" style="shape=parallelogram;html=1;strokeWidth=2;perimeter=parallelogramPerimeter;whiteSpace=wrap;rounded=1;arcSize=12;size=0.23;" vertex="1" parent="1"><mxGeometry x="338" y="-965" width="174" height="70" as="geometry"/></mxCell><mxCell id="9" value="" style="edgeStyle=none;html=1;" edge="1" parent="1" source="4" target="8"><mxGeometry relative="1" as="geometry"/></mxCell><mxCell id="4" value="CO2 SEDOT OLEH&lt;br&gt;MINI VACUM" style="rounded=0;whiteSpace=wrap;html=1;" vertex="1" parent="1"><mxGeometry x="365" y="-830" width="120" height="60" as="geometry"/></mxCell><mxCell id="16" value="" style="edgeStyle=none;html=1;" edge="1" parent="1" source="8" target="15"><mxGeometry relative="1" as="geometry"/></mxCell><mxCell id="17" value="" style="edgeStyle=none;html=1;" edge="1" parent="1" source="8" target="11"><mxGeometry relative="1" as="geometry"/></mxCell><mxCell id="8" value="PENGECEKAN&lt;br&gt;TERHADAP&lt;br&gt;BAKTERI&lt;br&gt;DIUDARA" style="strokeWidth=2;html=1;shape=mxgraph.flowchart.decision;whiteSpace=wrap;" vertex="1" parent="1"><mxGeometry x="349" y="-709" width="152" height="120" as="geometry"/></mxCell><mxCell id="19" value="" style="edgeStyle=none;html=1;" edge="1" parent="1" source="11" target="12"><mxGeometry relative="1" as="geometry"/></mxCell><mxCell id="11" value="CO2 DIFILTER MENJADI O2 DITANGKI BERISI ALGAE" style="rounded=0;whiteSpace=wrap;html=1;" vertex="1" parent="1"><mxGeometry x="365" y="-530" width="120" height="60" as="geometry"/></mxCell><mxCell id="20" value="" style="edgeStyle=none;html=1;" edge="1" parent="1" source="12" target="13"><mxGeometry relative="1" as="geometry"/></mxCell><mxCell id="12" value="SENSOR O2 MENDETEKSI ADANYA O2&amp;nbsp; DITANGKI" style="shape=parallelogram;perimeter=parallelogramPerimeter;whiteSpace=wrap;html=1;fixedSize=1;" vertex="1" parent="1"><mxGeometry x="365" y="-410" width="120" height="60" as="geometry"/></mxCell><mxCell id="21" value="" style="edgeStyle=none;html=1;" edge="1" parent="1" source="13" target="14"><mxGeometry relative="1" as="geometry"/></mxCell><mxCell id="23" style="edgeStyle=none;html=1;" edge="1" parent="1" source="13" target="3"><mxGeometry relative="1" as="geometry"><mxPoint x="360" y="-930" as="targetPoint"/><Array as="points"><mxPoint x="260" y="-260"/><mxPoint x="260" y="-930"/></Array></mxGeometry></mxCell><mxCell id="13" value="MINI VACUM KEDUA MENYEDOT O2 DITANKI DAN DILEPASKAN DIUDARA" style="rounded=0;whiteSpace=wrap;html=1;" vertex="1" parent="1"><mxGeometry x="358" y="-300" width="135" height="80" as="geometry"/></mxCell><mxCell id="14" value="END" style="strokeWidth=2;html=1;shape=mxgraph.flowchart.terminator;whiteSpace=wrap;" vertex="1" parent="1"><mxGeometry x="375" y="-170" width="100" height="60" as="geometry"/></mxCell><mxCell id="18" style="edgeStyle=none;html=1;entryX=1;entryY=0.5;entryDx=0;entryDy=0;" edge="1" parent="1" source="15" target="11"><mxGeometry relative="1" as="geometry"><Array as="points"><mxPoint x="630" y="-500"/></Array></mxGeometry></mxCell><mxCell id="15" value="BAKTERI DISARING OLEH HEPA ELECTROSTATIS" style="rounded=1;whiteSpace=wrap;html=1;" vertex="1" parent="1"><mxGeometry x="570" y="-680" width="120" height="60" as="geometry"/></mxCell><mxCell id="24" value="YES" style="text;html=1;align=center;verticalAlign=middle;resizable=0;points=[];autosize=1;strokeColor=none;fillColor=none;" vertex="1" parent="1"><mxGeometry x="505" y="-655" width="50" height="30" as="geometry"/></mxCell><mxCell id="25" value="NO" style="text;html=1;align=center;verticalAlign=middle;resizable=0;points=[];autosize=1;strokeColor=none;fillColor=none;" vertex="1" parent="1"><mxGeometry x="420" y="-575" width="40" height="30" as="geometry"/></mxCell></root></mxGraphModel></diagram></mxfile>